<svg width="16" height="17" viewBox="0 0 16 17" fill="none" xmlns="http://www.w3.org/2000/svg">
<path d="M4.632 3.5273C4.48144 3.5053 4.32789 3.53553 4.19689 3.61294H4.18572C3.88161 3.79121 3.60764 4.01652 3.37402 4.2805C3.17987 4.50496 3.07455 4.73209 3.04689 4.95071C3.0304 5.08103 3.04157 5.21135 3.0804 5.33582L3.09423 5.34433C3.31285 5.98688 3.59849 6.60497 3.94742 7.18688C4.3969 8.00441 4.95006 8.76049 5.59317 9.43635L5.61232 9.46401L5.64264 9.48635L5.66179 9.50869L5.68413 9.52784C6.36244 10.1728 7.12035 10.7286 7.93945 11.1816C8.87562 11.6911 9.44371 11.9321 9.78466 12.0321V12.0374C9.88466 12.0677 9.97562 12.0816 10.0671 12.0816C10.3577 12.0603 10.6328 11.9423 10.8485 11.7465C11.1113 11.5128 11.3341 11.2377 11.5081 10.9321V10.9268C11.6714 10.6193 11.616 10.3284 11.3804 10.1316C10.9085 9.71907 10.3982 9.35268 9.85647 9.03742C9.49371 8.84061 9.12509 8.95976 8.97562 9.15923L8.657 9.56082C8.49371 9.76029 8.1969 9.73263 8.1969 9.73263L8.18839 9.73795C5.97509 9.17252 5.38466 6.93156 5.38466 6.93156C5.38466 6.93156 5.357 6.62678 5.56179 6.47146L5.96072 6.15018C6.15168 5.99486 6.28466 5.62677 6.07987 5.26348C5.76679 4.721 5.4012 4.21058 4.98838 3.73954C4.89813 3.62849 4.77152 3.55294 4.63094 3.52624L4.632 3.5273Z" fill="white"/>
<path d="M8.37225 2.55319C8.14842 2.55319 7.96698 2.73464 7.96698 2.95846C7.96698 3.18228 8.14842 3.36373 8.37225 3.36373C9.39716 3.36373 10.2488 3.69874 10.9216 4.34023C11.2679 4.69151 11.5375 5.10731 11.7145 5.56234C11.8922 6.01908 11.973 6.50611 11.9523 6.99393C11.9428 7.21755 12.1163 7.40654 12.34 7.41605C12.5636 7.42556 12.7526 7.25199 12.7621 7.02837C12.7876 6.42821 12.6881 5.82942 12.4699 5.26849C12.2517 4.70759 11.9196 4.19645 11.494 3.76614L11.4859 3.75835C10.651 2.95995 9.59283 2.55319 8.37225 2.55319Z" fill="white"/>
<path d="M8.34466 3.88598C8.12084 3.88598 7.93939 4.06742 7.93939 4.29125C7.93939 4.51507 8.12084 4.69652 8.34466 4.69652H8.3579C9.09745 4.74863 9.63561 4.99515 10.0129 5.3998C10.3991 5.81655 10.5992 6.33419 10.5844 6.97465C10.5792 7.19841 10.7564 7.38401 10.9801 7.38919C11.2039 7.39437 11.3895 7.21717 11.3947 6.99341C11.4142 6.15248 11.1437 5.42734 10.6069 4.84835L10.6062 4.84759C10.0578 4.25907 9.3054 3.94773 8.39896 3.88689L8.3854 3.88598H8.34466Z" fill="white"/>
<path d="M8.32933 5.24311C8.10581 5.23134 7.91508 5.403 7.90332 5.62651C7.89155 5.85003 8.06321 6.04076 8.28672 6.05252C8.62606 6.07039 8.84235 6.17216 8.97836 6.3095C9.11496 6.44743 9.21715 6.66828 9.23577 7.01457C9.24779 7.23807 9.43872 7.40951 9.66222 7.39749C9.88572 7.38547 10.0572 7.19454 10.0451 6.97104C10.019 6.4847 9.8668 6.05473 9.55428 5.73916C9.24118 5.423 8.81365 5.2686 8.32933 5.24311Z" fill="white"/>
<path fill-rule="evenodd" clip-rule="evenodd" d="M3.90414 0.432398C6.48336 -0.144133 9.15805 -0.144133 11.7373 0.432398L12.0121 0.493823C13.5495 0.83748 14.7629 2.01667 15.1504 3.54362C15.8051 6.12344 15.8051 8.82592 15.1504 11.4057C14.7629 12.9327 13.5495 14.1119 12.0121 14.4555L11.7373 14.517C10.1171 14.8791 8.45934 15.0138 6.8112 14.921L4.66067 16.8451C4.49554 16.9929 4.2631 17.0391 4.05402 16.9657C3.84494 16.8923 3.69235 16.711 3.65576 16.4925L3.30009 14.3677C1.92024 13.939 0.850404 12.8219 0.491014 11.4057C-0.163672 8.82592 -0.163671 6.12344 0.491014 3.54362C0.878513 2.01667 2.09193 0.83748 3.62935 0.493823L3.90414 0.432398ZM11.472 1.61892C9.06749 1.08143 6.57392 1.08143 4.16936 1.61892L3.89457 1.68035C2.80453 1.924 1.94421 2.76006 1.66947 3.84268C1.06459 6.22624 1.06459 8.72312 1.66947 11.1067C1.94421 12.1893 2.80453 13.0254 3.89457 13.269L3.96716 13.2852C4.20861 13.3392 4.39326 13.5341 4.43411 13.7781L4.67263 15.203L6.19026 13.8451C6.3128 13.7355 6.47452 13.6801 6.63854 13.6918C8.25433 13.8062 9.88263 13.6857 11.472 13.3304L11.7468 13.269C12.8369 13.0254 13.6972 12.1893 13.9719 11.1067C14.5768 8.72312 14.5768 6.22624 13.9719 3.84268C13.6972 2.76006 12.8369 1.924 11.7468 1.68035L11.472 1.61892Z" fill="white"/>
</svg>
