<svg width="26" height="15" viewBox="0 0 26 15" fill="none" xmlns="http://www.w3.org/2000/svg">
<path d="M23.8894 11.5022C23.3474 10.8347 22.7321 10.2325 22.1364 9.6554C21.9265 9.44965 21.7116 9.24389 21.5017 9.03312C21.2233 8.75209 21.0866 8.55135 21.072 8.40582C21.0573 8.26029 21.155 8.0445 21.3747 7.72834C21.7067 7.25159 22.0583 6.77484 22.4001 6.31315C22.7028 5.90164 23.0153 5.48009 23.3181 5.05353L23.3864 4.95818C23.9724 4.12513 24.5778 3.26196 24.9001 2.21312C24.9929 1.91201 25.0905 1.46537 24.8562 1.07394C24.6218 0.682503 24.1921 0.567079 23.8894 0.511877C23.7429 0.486785 23.6013 0.481766 23.4694 0.481766L19.6706 0.476748C19.0114 0.466711 18.5573 0.787889 18.3083 1.43024C18.1081 1.94212 17.8737 2.53931 17.6052 3.10137C17.0827 4.19036 16.4235 5.44497 15.4665 6.48879L15.4226 6.53396C15.3591 6.60422 15.2517 6.72466 15.198 6.74975C15.0954 6.68451 14.9733 6.29809 14.9782 6.09736C14.9782 6.09234 14.9782 6.08732 14.9782 6.0823L14.9733 1.57076C14.9733 1.54567 14.9733 1.52559 14.9685 1.5005C14.8855 0.858146 14.7194 0.210773 13.7282 0.0100366C13.694 0.00501825 13.6647 0 13.6306 0H9.68037C8.93818 0 8.54268 0.351288 8.23018 0.727668C8.1374 0.838073 7.89815 1.13416 8.02022 1.49046C8.14717 1.85179 8.51826 1.92707 8.64033 1.95216C9.07002 2.03747 9.29463 2.28839 9.36299 2.76514C9.49971 3.69354 9.51436 4.68719 9.4167 5.8916C9.3874 6.21278 9.33857 6.45868 9.25068 6.66444C9.22627 6.71964 9.20674 6.75477 9.19209 6.77484C9.16768 6.7648 9.1335 6.74975 9.08467 6.71462C8.78193 6.50385 8.55244 6.17263 8.33272 5.85146C7.45381 4.57176 6.71162 3.16159 6.06709 1.53563C5.80342 0.868184 5.30537 0.496822 4.66572 0.486785C3.4499 0.466711 2.32197 0.466711 1.22334 0.486785C0.705762 0.496822 0.344434 0.662429 0.144239 0.983606C-0.0559562 1.30478 -0.0461906 1.71629 0.16377 2.20308C1.69209 5.69588 3.07393 8.23018 4.65107 10.4282C5.76436 11.9739 6.88252 13.0478 8.17158 13.8106C9.529 14.6086 11.0573 15 12.8298 15C13.03 15 13.2351 14.995 13.445 14.9849C14.5388 14.9348 14.9831 14.4881 15.0319 13.3891C15.0612 12.812 15.1198 12.3402 15.3396 11.9338C15.3981 11.8183 15.4714 11.7431 15.5251 11.728C15.5837 11.7129 15.6862 11.7481 15.7985 11.8234C16.0036 11.9639 16.1843 12.1495 16.3308 12.3152C16.4772 12.4808 16.6286 12.6564 16.7751 12.822C17.0827 13.1783 17.405 13.5447 17.7419 13.896C18.4987 14.6889 19.3776 15.0552 20.3444 14.9799H23.821C23.8308 14.9799 23.8454 14.9799 23.8552 14.9799C24.2556 14.9548 24.6022 14.724 24.8073 14.3526C25.0515 13.906 25.0466 13.3389 24.7976 12.8421C24.5339 12.3202 24.1921 11.8735 23.8894 11.5022ZM23.9382 13.8508C23.8894 13.9361 23.8308 13.9562 23.8015 13.9562H20.3249C20.3103 13.9562 20.2956 13.9562 20.2858 13.9562C19.6022 14.0164 19.0212 13.7655 18.4548 13.1783C18.1374 12.8421 17.8249 12.4858 17.5222 12.1395C17.3757 11.9689 17.2243 11.7932 17.0681 11.6226C16.8776 11.4118 16.6433 11.1659 16.3405 10.9652C15.8913 10.6641 15.5153 10.6741 15.281 10.7344C15.0515 10.7946 14.7194 10.9652 14.4655 11.4369C14.1384 12.0492 14.0651 12.7116 14.0358 13.3389C14.0212 13.7203 13.9577 13.8207 13.9284 13.8458C13.8942 13.8809 13.7771 13.9361 13.3962 13.9562C11.5505 14.0465 10.0026 13.7053 8.66475 12.9174C7.49775 12.2298 6.47725 11.2462 5.45186 9.81599C3.91865 7.68317 2.571 5.2091 1.07686 1.79659C1.02315 1.67113 1.00361 1.59585 1.00361 1.5557C1.04268 1.54065 1.11592 1.52559 1.24775 1.52559C2.33174 1.50552 3.4499 1.50552 4.65596 1.52559C4.82197 1.53061 5.00752 1.5808 5.14912 1.9371C5.82295 3.63834 6.59932 5.11375 7.52217 6.45868C7.76631 6.81499 8.07393 7.25661 8.52315 7.57277C8.9333 7.86383 9.27022 7.84878 9.47529 7.78856C9.68525 7.72834 9.97334 7.55269 10.1687 7.08096C10.2956 6.77484 10.3688 6.43359 10.4079 5.99699C10.5153 4.70726 10.4958 3.63834 10.3493 2.62964C10.2468 1.90699 9.88057 1.38508 9.30928 1.1191C9.41182 1.0639 9.52412 1.04383 9.68525 1.04383H13.5866C13.8063 1.09401 13.8503 1.15423 13.8649 1.17431C13.9284 1.25962 13.9626 1.46537 13.987 1.62596L13.9919 6.09736C13.9821 6.52392 14.1872 7.47742 14.8757 7.73837C14.8806 7.73837 14.8855 7.74339 14.8952 7.74339C15.5251 7.95416 15.9401 7.49749 16.1599 7.25159L16.1989 7.20642C17.2487 6.06223 17.9567 4.72232 18.5085 3.56808C18.7966 2.97089 19.0407 2.35363 19.2458 1.82168C19.3483 1.5557 19.4411 1.51054 19.6657 1.51556C19.6706 1.51556 19.6706 1.51556 19.6755 1.51556L23.4792 1.52058C23.5671 1.52058 23.6599 1.52058 23.7331 1.53563C23.9138 1.56574 23.987 1.60589 24.0114 1.62094C24.0163 1.65105 24.0114 1.73637 23.9577 1.91201C23.6794 2.80529 23.1472 3.56306 22.5856 4.36601L22.5173 4.46136C22.2243 4.87789 21.9118 5.29943 21.614 5.70592C21.2673 6.17263 20.9108 6.65942 20.5739 7.1462C19.8513 8.18501 19.9147 8.87253 20.8181 9.77584C21.0329 9.99164 21.2478 10.2024 21.4626 10.4082C22.0632 10.9903 22.6296 11.5423 23.1325 12.1646C23.3962 12.4908 23.6989 12.8873 23.9138 13.3188C24.0261 13.5396 23.9968 13.7454 23.9382 13.8508Z" fill="white"/>
</svg>
