<svg width="15" height="15" viewBox="0 0 15 15" fill="none" xmlns="http://www.w3.org/2000/svg">
<path d="M5.12292 3.90904C5.26072 3.91274 5.41349 3.92022 5.55885 4.24413C5.65523 4.45976 5.8176 4.85673 5.94986 5.18009C6.05278 5.43172 6.13748 5.63879 6.15867 5.68117C6.2071 5.77795 6.23691 5.88963 6.17358 6.01991C6.16611 6.03527 6.15906 6.04997 6.15226 6.06412C6.10146 6.16997 6.0653 6.2453 5.97986 6.34381C5.94473 6.38429 5.90813 6.42869 5.87167 6.47292C5.80755 6.55072 5.74383 6.62801 5.68922 6.68262C5.59237 6.77933 5.49173 6.88366 5.6035 7.07723C5.71533 7.27079 6.10653 7.90742 6.68403 8.42119C7.30489 8.97609 7.84477 9.20994 8.11767 9.32815C8.17066 9.35111 8.21358 9.3697 8.24507 9.38543C8.43885 9.48222 8.55433 9.46732 8.66609 9.33704C8.77792 9.2067 9.15044 8.77111 9.28089 8.57755C9.40756 8.38398 9.53794 8.41377 9.71681 8.48076C9.89562 8.54776 10.8494 9.01684 11.0431 9.11362C11.0814 9.13276 11.1172 9.15001 11.1504 9.16599C11.2852 9.23088 11.3769 9.27499 11.4157 9.34075C11.4641 9.42264 11.4641 9.80983 11.304 10.264C11.1401 10.7182 10.3502 11.1538 9.99248 11.1873C9.95861 11.1905 9.92491 11.1946 9.89023 11.1988C9.56245 11.2386 9.14634 11.2891 7.66387 10.7033C5.83715 9.98215 4.63131 8.19288 4.38752 7.83113C4.36827 7.80257 4.35502 7.78291 4.34793 7.77337L4.34381 7.76783C4.23289 7.61883 3.55433 6.7073 3.55433 5.76683C3.55433 4.86702 3.99585 4.39856 4.19724 4.18488C4.21 4.17134 4.2218 4.15882 4.23246 4.14728C4.41127 3.95372 4.61995 3.90533 4.75033 3.90533C4.88078 3.90533 5.01116 3.90533 5.12292 3.90904Z" fill="white"/>
<path fill-rule="evenodd" clip-rule="evenodd" d="M0.0753723 14.6169C0.0137505 14.8415 0.217474 15.0487 0.441954 14.9899L3.91205 14.0799C5.00742 14.6756 6.24066 14.992 7.49629 14.992H7.5C11.6319 14.992 15 11.6303 15 7.4979C15 5.495 14.2212 3.61119 12.8055 2.19646C11.3897 0.781803 9.50816 0 7.49994 0C3.36814 0 4.77741e-07 3.36175 4.77741e-07 7.49419C-0.000469058 8.80881 0.345173 10.1004 1.00223 11.2394L0.0753723 14.6169ZM2.0914 11.5406C2.17185 11.2474 2.13166 10.9341 1.97985 10.6709C1.42239 9.70464 1.12935 8.60882 1.12975 7.49419C1.12975 3.99352 3.98671 1.13418 7.49994 1.13418C9.20955 1.13418 10.8045 1.79729 12.0085 3.00033C13.2111 4.20204 13.8702 5.79651 13.8702 7.4979C13.8702 10.9985 11.0133 13.8578 7.5 13.8578H7.49629C6.42941 13.8578 5.38102 13.5889 4.45013 13.0827C4.19818 12.9457 3.90378 12.9099 3.62654 12.9826L1.54599 13.5281L2.0914 11.5406Z" fill="white"/>
</svg>
